<?xml version="1.0" standalone="no"?><!DOCTYPE svg PUBLIC "-//W3C//DTD SVG 1.1//EN" "http://www.w3.org/Graphics/SVG/1.1/DTD/svg11.dtd"><svg t="1536282937830" class="icon" style="" viewBox="0 0 1465 1024" version="1.1" xmlns="http://www.w3.org/2000/svg" p-id="2516" xmlns:xlink="http://www.w3.org/1999/xlink" width="286.1328125" height="200"><defs><style type="text/css"></style></defs><path d="M1352.376963 292.188482h54.95288c30.827225 0 54.95288-24.125654 54.95288-54.95288s-24.125654-54.95288-54.95288-54.952879h-109.905759c-8.041885 0-16.08377 2.680628-22.785341 5.361256L1148.649215 21.445026C1139.267016 8.041885 1123.183246 0 1105.759162 0h-750.575916c-16.08377 0-32.167539 8.041885-42.890052 21.445026L187.643979 187.643979c-6.701571-4.020942-14.743455-5.361257-22.78534-5.361256H54.95288c-30.827225 0-54.95288 24.125654-54.95288 54.952879s24.125654 54.95288 54.95288 54.95288h54.952879L10.722513 423.539267c-6.701571 9.382199-10.722513 21.445026-10.722513 32.167539v514.680629c0 29.486911 24.125654 53.612565 53.612565 53.612565h222.492147c29.486911 0 53.612565-24.125654 53.612565-53.612565V857.801047c0-29.486911 24.125654-53.612565 53.612566-53.612565h696.963351c29.486911 0 53.612565 24.125654 53.612565 53.612565v166.198953h276.104712c29.486911 0 53.612565-24.125654 53.612566-53.612565V455.706806c0-12.062827-4.020942-22.78534-10.722513-32.167539l-100.523561-131.350785z m-1113.801047-38.86911l128.670157-171.56021c4.020942-6.701571 12.062827-9.382199 18.764398-9.382199h682.219895c8.041885 0 14.743455 4.020942 18.764398 9.382199l127.329843 171.56021c12.062827 16.08377 0 38.86911-18.764398 38.86911h-938.219895c-18.764398 0-30.827225-22.78534-18.764398-38.86911z m89.801047 258.680628h-109.905759c-40.209424 0-73.717277-32.167539-73.717277-73.717277 0-40.209424 32.167539-73.717277 73.717277-73.717278h109.905759c40.209424 0 73.717277 32.167539 73.717278 73.717278 0 40.209424-33.507853 73.717277-73.717278 73.717277z m914.094241 0h-109.905759c-40.209424 0-73.717277-32.167539-73.717277-73.717277 0-40.209424 32.167539-73.717277 73.717277-73.717278h109.905759c40.209424 0 73.717277 32.167539 73.717278 73.717278-1.340314 40.209424-33.507853 73.717277-73.717278 73.717277z" fill="" p-id="2517"></path></svg>