<?xml version="1.0" standalone="no"?><!DOCTYPE svg PUBLIC "-//W3C//DTD SVG 1.1//EN" "http://www.w3.org/Graphics/SVG/1.1/DTD/svg11.dtd"><svg t="1536282797988" class="icon" style="" viewBox="0 0 1024 1024" version="1.1" xmlns="http://www.w3.org/2000/svg" p-id="1753" xmlns:xlink="http://www.w3.org/1999/xlink" width="200" height="200"><defs><style type="text/css"></style></defs><path d="M773.888 544.1024H246.784c-26.0096-0.4096-46.9504-20.224-46.9504-44.544v-0.7168c0-24.7808 21.0944-45.2608 46.9504-45.2608h527.0528a46.08 46.08 0 0 1 46.7968 45.9264c0 24.3712-20.8384 44.0832-46.7968 44.6976v-0.1024z m0 222.1056H246.784c-26.0096-0.512-46.9504-20.2752-46.9504-44.5952v-0.7168c0-24.9344 21.0944-45.2608 46.9504-45.2608h527.0528a46.08 46.08 0 0 1 46.7968 45.9776c0 24.2688-20.8384 44.032-46.7968 44.544zM199.8848 276.736c0-24.7808 21.0944-45.2608 46.9504-45.2608h332.288a46.2848 46.2848 0 0 1 47.0016 46.08c0 24.32-20.992 44.032-47.0016 44.544h-332.288c-26.0096-0.512-46.9504-20.224-46.9504-44.544v-0.8192zM930.2016 0H93.44C42.0864 0 0 40.6528 0 90.2656v843.264c0 49.664 41.984 90.368 93.44 90.368h836.7616c51.4048 0 93.44-40.6528 93.44-90.368V90.2656c0-49.6128-41.984-90.2656-93.44-90.2656z" p-id="1754"></path></svg>