<?xml version="1.0" standalone="no"?><!DOCTYPE svg PUBLIC "-//W3C//DTD SVG 1.1//EN" "http://www.w3.org/Graphics/SVG/1.1/DTD/svg11.dtd"><svg t="1536283177862" class="icon" style="" viewBox="0 0 1024 1024" version="1.1" xmlns="http://www.w3.org/2000/svg" p-id="3633" xmlns:xlink="http://www.w3.org/1999/xlink" width="200" height="200"><defs><style type="text/css"></style></defs><path d="M224.310254 379.687532l578.360384 0c24.696472 0 44.717458-20.020986 44.717458-44.718481l0-15.900132c0-24.696472-20.020986-44.718481-44.717458-44.718481L624.80467 274.350438c0.303922-1.305739 0.481977-2.659573 0.481977-4.056386l0-56.644091c0-9.877975-8.009418-17.887392-17.887392-17.887392l-187.81762 0c-9.877975 0-17.887392 8.009418-17.887392 17.887392l0 56.644091c0 1.397836 0.176009 2.750647 0.479931 4.056386L224.310254 274.350438c-24.696472 0-44.718481 20.022009-44.718481 44.718481l0 15.900132C179.591773 359.666546 199.613782 379.687532 224.310254 379.687532z" p-id="3634"></path><path d="M914.466839 496.948189l-3.974521 0c-24.698518 0-44.718481 20.022009-44.718481 44.718481l0 21.118993-72.04792 0 0-95.02319c0-25.590841-22.302959-46.337351-49.819662-46.337351L283.074635 421.425122c-27.516704 0-49.820686 20.74651-49.820686 46.337351l0 95.02319-75.02881 0 0-21.118993c0-24.696472-20.022009-44.718481-44.718481-44.718481l-3.973498 0c-24.697495 0-44.718481 20.022009-44.718481 44.718481l0 133.164882c0 24.694425 20.020986 44.717458 44.718481 44.717458l3.973498 0c24.696472 0 44.718481-20.023032 44.718481-44.717458l0-34.534538 75.02881 0 0 140.238998c0 25.591865 22.302959 46.337351 49.820686 46.337351L743.906256 826.873364c27.516704 0 49.819662-20.745487 49.819662-46.337351L793.725918 640.297015l72.04792 0 0 34.534538c0 24.694425 20.019962 44.717458 44.718481 44.717458l3.974521 0c24.696472 0 44.717458-20.023032 44.717458-44.717458L959.184297 541.66667C959.184297 516.970198 939.162288 496.948189 914.466839 496.948189z" p-id="3635"></path></svg>