<?xml version="1.0" standalone="no"?><!DOCTYPE svg PUBLIC "-//W3C//DTD SVG 1.1//EN" "http://www.w3.org/Graphics/SVG/1.1/DTD/svg11.dtd"><svg t="1536282810301" class="icon" style="" viewBox="0 0 1026 1024" version="1.1" xmlns="http://www.w3.org/2000/svg" p-id="1862" xmlns:xlink="http://www.w3.org/1999/xlink" width="200.390625" height="200"><defs><style type="text/css"></style></defs><path d="M515.107 66.143c-247.525 0-447.928 200.403-447.928 447.928s200.403 447.928 447.928 447.928 447.928-200.92 447.928-447.928S762.115 66.143 515.107 66.143z m-77.157 203.51l35.731 19.678c-51.265 89.586-112.888 161.565-184.35 215.937-7.25-10.357-17.089-21.749-29.516-34.178 69.391-49.194 128.942-115.995 178.136-201.438zM657.512 655.96c-4.142 63.176-33.659 94.246-89.586 94.246-27.445 0.517-55.927-0.517-86.479-2.589-2.072-13.982-4.142-28.481-7.25-42.981 25.892 3.624 54.891 5.696 86.997 6.214 33.659 0.517 52.301-19.161 55.409-59.033 2.589-36.248 4.661-78.194 6.214-125.834H467.466c-4.142 56.444-15.534 101.496-35.213 136.191-25.374 45.052-68.354 80.264-128.942 104.603-8.803-11.392-18.124-22.785-28.999-33.659 55.927-20.713 96.318-51.265 120.656-91.139 17.606-30.035 27.964-68.872 30.552-115.995h-96.835V488.7h336.076c-1.553 56.444-4.142 112.371-7.25 167.261z m79.228-152.762c-92.693-53.855-158.976-128.942-198.849-225.777l36.248-15.534c37.284 90.104 102.014 157.941 195.224 202.992-15.017 15.534-25.892 28.481-32.624 38.32z" fill="" p-id="1863"></path></svg>