<?xml version="1.0" standalone="no"?><!DOCTYPE svg PUBLIC "-//W3C//DTD SVG 1.1//EN" "http://www.w3.org/Graphics/SVG/1.1/DTD/svg11.dtd"><svg t="1536283050936" class="icon" style="" viewBox="0 0 1024 1024" version="1.1" xmlns="http://www.w3.org/2000/svg" p-id="2958" xmlns:xlink="http://www.w3.org/1999/xlink" width="200" height="200"><defs><style type="text/css"></style></defs><path d="M512 32C246.4 32 32 246.4 32 512s214.4 480 480 480 480-214.4 480-480S777.6 32 512 32zM300.8 470.4c-3.2-3.2-3.2-3.2-6.4-9.6 3.2-9.6 9.6-22.4 25.6-38.4 16-19.2 38.4-41.6 64-64 32-25.6 60.8-44.8 83.2-57.6 6.4-3.2 9.6-3.2 12.8-3.2 6.4 0 9.6 3.2 9.6 12.8-3.2 6.4-9.6 19.2-22.4 32-9.6 12.8-22.4 32-38.4 51.2-22.4 32-44.8 64-70.4 99.2-3.2 3.2-6.4 3.2-12.8 3.2s-16-6.4-25.6-12.8c-6.4-3.2-12.8-9.6-19.2-12.8z m374.4 256h-64c-6.4 0-12.8-6.4-12.8-16 0-76.8 0-128-3.2-147.2 0-22.4-6.4-32-19.2-32-19.2 3.2-44.8 6.4-76.8 9.6-38.4 70.4-70.4 131.2-99.2 182.4 0 3.2-3.2 3.2-9.6 3.2-16-3.2-35.2-12.8-60.8-25.6-3.2-3.2-6.4-6.4-6.4-9.6 19.2-35.2 54.4-80 102.4-140.8-16 3.2-28.8 6.4-44.8 6.4-12.8 0-19.2-3.2-19.2-9.6 0-12.8 6.4-25.6 16-38.4 9.6-12.8 19.2-19.2 25.6-22.4 3.2 3.2 6.4 3.2 9.6 9.6 3.2 3.2 6.4 3.2 9.6 3.2 12.8-3.2 32-6.4 57.6-9.6 25.6-3.2 57.6-6.4 92.8-9.6 41.6 0 67.2 12.8 76.8 38.4 12.8 38.4 22.4 102.4 32 195.2 6.4 6.4 3.2 12.8-6.4 12.8z m6.4-240c-3.2 0-6.4 0-9.6-3.2-19.2-16-44.8-41.6-76.8-73.6-28.8-25.6-51.2-48-67.2-67.2-3.2-3.2-6.4-9.6-6.4-12.8 3.2-3.2 6.4-6.4 16-6.4 28.8 3.2 60.8 16 92.8 32 35.2 19.2 70.4 41.6 96 67.2l6.4 6.4c-32 38.4-48 57.6-51.2 57.6z" fill="#4891FF" p-id="2959"></path></svg>