<?xml version="1.0" standalone="no"?><!DOCTYPE svg PUBLIC "-//W3C//DTD SVG 1.1//EN" "http://www.w3.org/Graphics/SVG/1.1/DTD/svg11.dtd"><svg t="1536283074248" class="icon" style="" viewBox="0 0 1024 1024" version="1.1" xmlns="http://www.w3.org/2000/svg" p-id="3191" xmlns:xlink="http://www.w3.org/1999/xlink" width="200" height="200"><defs><style type="text/css"></style></defs><path d="M985.978 477.027c-0.471-16.745-3.797-29.097-15.676-46.083C968.041 427.501 605.45 40 605.45 40 580.27 13.157 547.049 0.301 513.68 0.271V0.003c-0.481-0.03-1.075 0.15-1.669 0.15s-1.188-0.179-1.78-0.15v0.268C476.977 0.301 443.725 13.158 418.427 40c0 0-362.471 387.503-364.728 390.945-11.876 16.984-15.201 29.336-15.678 46.083v6.293c0 52.85 42.875 95.788 95.726 95.788h22.919v343.528c0 55.938 50.236 101.247 112.118 101.247 61.877 0 111.995-45.308 111.995-101.247v-343.53H643.1v343.528c0 55.938 50.238 101.247 112.117 101.247 61.875 0 111.99-45.308 111.99-101.247V579.107h22.925c52.971 0 95.842-42.937 95.842-95.788 0-0.476-0.115-0.95-0.115-1.423l0.115-4.871 0.004 0.002zM843.222 130.734l0.597 0.742 72.092 76.188c10.214 10.748 27.082 11.225 37.768 1.068 0.118-0.059 0.118-0.179 0.357-0.297l0.947-0.89c3.205-3.324 5.109-6.292 6.298-11.997 0.238-1.066 0.355-2.257 0.469-3.383 0.24-1.249 0.474-2.433 0.597-3.921l8.318-141.391c0.595-10.303-3.209-19.475-9.502-26.247v-0.059c-0.123-0.091-0.243-0.208-0.36-0.297a4.696 4.696 0 0 1-0.355-0.386v0.031c-6.413-6.71-15.323-10.987-25.653-10.957l-141.691 0.357c-1.54 0.06-2.61 0.151-3.918 0.269-1.19 0.088-2.261 0.119-3.325 0.325-5.821 0.859-8.909 2.553-12.472 5.672l-0.95 0.951c0 0.058-0.238 0.147-0.238 0.207-10.682 10.187-11.165 27.051-1.071 37.798l72.095 76.218h-0.003v-0.001z" p-id="3192"></path></svg>