<?xml version="1.0" standalone="no"?><!DOCTYPE svg PUBLIC "-//W3C//DTD SVG 1.1//EN" "http://www.w3.org/Graphics/SVG/1.1/DTD/svg11.dtd"><svg t="1536283214852" class="icon" style="" viewBox="0 0 1024 1024" version="1.1" xmlns="http://www.w3.org/2000/svg" p-id="3967" xmlns:xlink="http://www.w3.org/1999/xlink" width="200" height="200"><defs><style type="text/css"></style></defs><path d="M748.84115 64.025199 273.514397 64.025199c-39.986713 0-72.519664 30.91715-72.519664 68.920696l0 758.108211c0 38.003546 32.531927 68.919672 72.519664 68.919672l475.325729 0c39.986713 0 72.51864-30.91715 72.51864-68.919672L821.358767 132.945895C821.35979 94.943372 788.827863 64.025199 748.84115 64.025199zM511.177262 911.855874c-28.551266 0-51.697429-23.14514-51.697429-51.697429 0-28.551266 23.14514-51.697429 51.697429-51.697429s51.697429 23.14514 51.697429 51.697429C562.873668 888.709711 539.728528 911.855874 511.177262 911.855874zM752.428861 753.318114 269.924639 753.318114 269.924639 157.071362c0-13.297864 9.991562-24.11728 22.272259-24.11728l437.95868 0c12.281721 0 22.273283 10.819416 22.273283 24.11728L752.428861 753.318114z" p-id="3968"></path></svg>