<?xml version="1.0" standalone="no"?><!DOCTYPE svg PUBLIC "-//W3C//DTD SVG 1.1//EN" "http://www.w3.org/Graphics/SVG/1.1/DTD/svg11.dtd"><svg t="1536283132889" class="icon" style="" viewBox="0 0 1024 1024" version="1.1" xmlns="http://www.w3.org/2000/svg" p-id="3409" xmlns:xlink="http://www.w3.org/1999/xlink" width="200" height="200"><defs><style type="text/css"></style></defs><path d="M886.596 423.538H648.012C740.452 82.085 584.305 64.64 584.305 64.64c-66.202 0-52.461 52.34-57.46 61.061 0 166.986-177.372 297.837-177.372 297.837v473.547c0 46.728 63.7 63.555 88.685 63.555H796.66c33.728 0 61.206-88.483 61.206-88.483 88.694-301.569 88.694-391.292 88.694-391.292 0-62.308-59.964-57.327-59.964-57.327z m0 0M251.567 423.693H108.7c-29.513 0-29.979 28.976-29.979 28.976l29.513 477.593c0 30.378 30.445 30.378 30.445 30.378H262.34c25.763 0 25.53-20.095 25.53-20.095V459.91c0-36.682-36.304-36.216-36.304-36.216z m0 0" p-id="3410"></path></svg>