<?xml version="1.0" standalone="no"?><!DOCTYPE svg PUBLIC "-//W3C//DTD SVG 1.1//EN" "http://www.w3.org/Graphics/SVG/1.1/DTD/svg11.dtd"><svg t="1536283082484" class="icon" style="" viewBox="0 0 1024 1024" version="1.1" xmlns="http://www.w3.org/2000/svg" p-id="3300" xmlns:xlink="http://www.w3.org/1999/xlink" width="200" height="200"><defs><style type="text/css"></style></defs><path d="M830.7712 389.632h-70.3488V236.9536C760.4224 109.1584 649.1136 5.12 512 5.12 374.9888 5.12 263.4752 109.1584 263.4752 236.9536v152.6784h-70.2464c-33.8944 0-61.3376 25.6-61.3376 57.2416V961.536c0 31.744 27.4432 57.344 61.3376 57.344h637.6448c33.8944 0 61.3376-25.6 61.3376-57.344V446.976c0-31.6416-27.5456-57.344-61.44-57.344zM546.5088 715.1616v91.3408c0 4.096-3.584 7.4752-8.0896 7.4752h-52.736c-4.5056 0-8.0896-3.4816-8.0896-7.4752v-91.3408c-24.7808-11.8784-41.984-35.5328-41.984-63.2832 0-39.3216 34.2016-71.2704 76.3904-71.2704 42.1888 0 76.3904 31.9488 76.3904 71.2704 0.1024 27.7504-17.1008 51.4048-41.8816 63.2832z m118.5792-325.5296h-306.176V240.7424c0-78.7456 68.7104-142.9504 153.088-142.9504s152.9856 64.1024 152.9856 142.9504l0.1024 148.8896z" p-id="3301"></path></svg>