<?xml version="1.0" standalone="no"?><!DOCTYPE svg PUBLIC "-//W3C//DTD SVG 1.1//EN" "http://www.w3.org/Graphics/SVG/1.1/DTD/svg11.dtd"><svg t="1536282922174" class="icon" style="" viewBox="0 0 1024 1024" version="1.1" xmlns="http://www.w3.org/2000/svg" p-id="2298" xmlns:xlink="http://www.w3.org/1999/xlink" width="200" height="200"><defs><style type="text/css"></style></defs><path d="M810.817219 54.199012c0-26.015526-22.402258-47.695131-49.140437-47.695131-27.460833 0-49.140438 21.679605-49.140438 47.695131v95.390261c0 26.015526 22.402258 47.695131 49.140438 47.695131 27.460833 0 49.140438-21.679605 49.140437-47.695131V54.199012zM563.669725 54.199012C563.669725 28.183486 541.267466 6.503881 514.529287 6.503881c-27.460833 0-49.140438 21.679605-49.140437 47.695131v95.390261c0 26.015526 22.402258 47.695131 49.140437 47.695131 27.460833 0 49.140438-21.679605 49.140438-47.695131V54.199012z m-246.424841 0c0-26.015526-22.402258-47.695131-49.140438-47.695131-27.460833 0-49.140438 21.679605-49.140438 47.695131v95.390261c0 26.015526 22.402258 47.695131 49.140438 47.695131 27.460833 0 49.140438-21.679605 49.140438-47.695131V54.199012z m625.095271 47.695131H859.957657v47.69513c0 52.753705-44.081863 95.390261-99.003529 95.390261-54.199012 0-99.003529-42.636556-99.003528-95.390261v-47.69513h-49.140438v47.69513c0 52.753705-44.081863 95.390261-99.003528 95.390261S415.525759 202.342978 415.525759 149.589273v-47.69513h-49.140438v47.69513c0 52.753705-44.081863 95.390261-99.003528 95.390261-54.199012 0-99.003529-42.636556-99.003529-95.390261v-47.69513H86.718419c-27.460833 0-49.140438 21.679605-49.140437 47.69513v826.715596c0 26.015526 22.402258 47.695131 49.140437 47.695131h854.899083c27.460833 0 49.140438-21.679605 49.140437-47.695131V149.589273c0.722653-26.015526-21.679605-47.695131-48.417784-47.69513zM309.295695 871.520113c0 22.402258-18.788991 40.468596-41.191249 40.468596s-41.191249-18.066337-41.191249-40.468596v-107.675371c0-22.402258 18.066337-40.468596 41.191249-40.468595 22.402258 0 41.191249 18.066337 41.191249 40.468595v107.675371z m164.764997 0c0 22.402258-18.066337 40.468596-41.19125 40.468596-22.402258 0-41.191249-18.066337-41.191249-40.468596V656.169372c0-22.402258 18.066337-40.468596 41.191249-40.468596 22.402258 0 41.191249 18.066337 41.19125 40.468596v215.350741z m164.042343 0c0 22.402258-18.066337 40.468596-41.19125 40.468596-22.402258 0-41.191249-18.066337-41.191249-40.468596V548.494001c0-22.402258 18.066337-40.468596 41.191249-40.468595 22.402258 0 41.191249 18.066337 41.19125 40.468595v323.026112z m164.764996 0c0 22.402258-18.066337 40.468596-41.191249 40.468596-22.402258 0-41.191249-18.066337-41.191249-40.468596V440.818631c0-22.402258 18.788991-40.468596 41.191249-40.468596s41.191249 18.066337 41.191249 40.468596v430.701482z" p-id="2299"></path></svg>