<?xml version="1.0" standalone="no"?><!DOCTYPE svg PUBLIC "-//W3C//DTD SVG 1.1//EN" "http://www.w3.org/Graphics/SVG/1.1/DTD/svg11.dtd"><svg t="1536283018423" class="icon" style="" viewBox="0 0 1024 1024" version="1.1" xmlns="http://www.w3.org/2000/svg" p-id="2849" xmlns:xlink="http://www.w3.org/1999/xlink" width="200" height="200"><defs><style type="text/css"></style></defs><path d="M834.395136 662.542336c36.11648-78.26432 41.337856-163.340288 20.593664-240.59392-23.853056-89.161728-82.546688-168.660992-167.658496-216.964096l37.75488-81.589248-214.658048 56.28416 96.004096 200.083456 39.501824-85.364736c57.83552 35.31776 97.429504 90.6496 114.183168 152.952832 14.984192 56.128512 11.309056 117.159936-14.88896 174.11072-33.3824 72.378368-95.782912 121.65632-167.23968 140.88192a257.502208 257.502208 0 0 1-31.453184 6.335488L590.848 860.279808c4.21376-0.980992 8.393728-1.965056 12.546048-3.101696 98.383872-26.225664 185.07776-94.864384 231.001088-194.635776M378.78784 734.157824c-58.693632-35.253248-98.889728-91.060224-115.80416-153.931776-14.98112-56.128512-11.275264-117.193728 14.887936-174.081024 33.383424-72.406016 95.78496-121.688064 167.243776-140.911616 11.84768-3.171328 23.914496-5.448704 36.109312-6.908928l-44.1856-92.075008c-5.79584 1.23904-11.593728 2.567168-17.328128 4.119552-98.351104 26.28608-185.075712 94.922752-231.03488 194.697216-36.045824 78.2336-41.274368 163.340288-20.527104 240.55808l0.063488 0.256c24.041472 89.761792 83.431424 169.674752 169.493504 217.849856l-35.697664 77.853696 214.437888-57.042944-96.669696-199.734272-40.988672 89.351168m0 0z" fill="#040000" p-id="2850"></path></svg>