<?xml version="1.0" standalone="no"?><!DOCTYPE svg PUBLIC "-//W3C//DTD SVG 1.1//EN" "http://www.w3.org/Graphics/SVG/1.1/DTD/svg11.dtd"><svg t="1536282876758" class="icon" style="" viewBox="0 0 1024 1024" version="1.1" xmlns="http://www.w3.org/2000/svg" p-id="2189" xmlns:xlink="http://www.w3.org/1999/xlink" width="200" height="200"><defs><style type="text/css"></style></defs><path d="M472.576 498.176L44.544 926.208c-20.48 20.48-22.528 52.224-4.096 70.656 18.432 18.432 49.664 16.384 70.144-4.096L509.44 593.92l403.456 403.456c18.432 18.432 48.128 18.432 66.048 0 18.432-18.432 18.432-48.128 0-66.048L542.72 495.104c-18.432-18.432-48.128-18.432-66.048 0l-2.048 2.048c-0.512-0.512-1.024 0-2.048 1.024zM477.184 25.6l-2.048 2.048-2.048 2.048L44.544 457.728c-20.48 20.48-22.528 52.224-4.096 70.656 18.432 18.432 49.664 16.384 70.144-4.096l398.848-398.848 403.456 403.456c18.432 18.432 48.128 18.432 66.048 0 18.432-18.432 18.432-48.128 0-66.048L543.232 25.6c-18.432-18.432-48.128-18.432-66.048 0z" p-id="2190"></path></svg>