<?xml version="1.0" standalone="no"?><!DOCTYPE svg PUBLIC "-//W3C//DTD SVG 1.1//EN" "http://www.w3.org/Graphics/SVG/1.1/DTD/svg11.dtd"><svg t="1536283153946" class="icon" style="" viewBox="0 0 1024 1024" version="1.1" xmlns="http://www.w3.org/2000/svg" p-id="3518" xmlns:xlink="http://www.w3.org/1999/xlink" width="200" height="200"><defs><style type="text/css"></style></defs><path d="M501.988202 539.879434c147.12501 0 266.861899-117.319111 266.861899-261.549253C768.850101 134.124606 649.113212 16.808081 501.988202 16.808081S235.149576 134.150465 235.149576 278.330182C235.149576 422.533172 354.863192 539.879434 501.988202 539.879434L501.988202 539.879434 501.988202 539.879434zM399.652848 587.763071C213.830465 587.763071 75.09398 713.076364 75.09398 895.062626l0 19.585293c0 95.12598 148.698505 95.12598 336.916687 95.12598l199.952808 0c180.805818 0 336.942545 0 336.942545-95.12598l0-19.585293c0-181.959111-138.761051-307.300848-324.558869-307.300848L399.652848 587.761778 399.652848 587.763071 399.652848 587.763071z" p-id="3519"></path></svg>